<svg xmlns="http://www.w3.org/2000/svg" viewBox="0 0 341.66 307.55"><title>melusine</title><g id="a95c07c5-61c1-4d08-ba29-9338d546268b" data-name="Calque 2"><g id="e6a866b1-3516-41ce-96e4-eccfc456676e" data-name="Calque 1"><path d="M116,100S97.46,92.84,83.5,82.83s-25.07-29-25.07-29-7.49,9.79-18.6,7.11-15.61-7-15.61-7,6.66,10.94,10.11,17.17-1,4.12-1,4.12,10.11,6.38,6.54,12.62-1.37,4-5.08,15.07.56,16-.86,21.24a33.26,33.26,0,0,1-3.67,8.65s13.65-.51,12.78,4.3S35,154.35,35,154.35s5.46-2.26,8.13,2.74A16.39,16.39,0,0,0,50.36,164s5.35,5.14,12.62.14,31.88-42.6,37-45.52S116.12,106,116.12,106Z" fill="#fff"/><path d="M110.32,101.11S86.1,96.66,69.48,90.69,33.34,75.17,33.34,75.17A96.13,96.13,0,0,0,59.88,90.43c16.17,6.2,42.72,15.89,42.72,15.89l-15.19.85L88.76,112,67.93,116.3,94.78,114l5.39-1.61-3.91,5s-17.77,2.95-33.67,7-32.32,8.34-32.32,8.34,7.47,3.45,8.63,6.67S35,154.35,35,154.35L85.27,129l-5.46,7.35L56.54,150.09l24.8-10.53s-7.89,6.63-10.48,11.66S56.39,163.83,50.36,164s10,3.38,10,3.38,8.41,3.79,20.47-17.6A101.06,101.06,0,0,1,110.94,117l10.88-13.48s0-1.11-13.94-7.3S80.45,80.46,73.35,73.68C67,67.6,75.1,81.77,87.47,89.3A181.55,181.55,0,0,0,110.32,101.11Z" fill="#343736"/><path d="M58.43,53.8c-4.18,4.61-10.57,11-17,10.67-2.39-.13-7.66-.44-9.7-1.41-2.64-1.25-3-4.65-4.76-7.22-.92,2.73,3.34,5.17,3.85,9-2.08-3.54-4.27-6.42-6.56-11C34.36,56.69,44.66,62.7,58.43,53.8Z" fill="#343736"/><path d="M36.72,97.21c-.17,3.21.81,6.67.59,10.13-.2,3-.44,5.9-.69,8.79-.26,3-.83,5.86-1.12,8.9-.26,2.75.94,6,0,8.59-1.34-.32-4-.35-5.26-.87.64-2.68,3.43-5.93,3.67-8.65.22-2.4-.74-4.92-.79-7.33,0-2.8-.34-6.59.48-9.34C34.63,104.11,35,102,36.72,97.21Z" fill="#343736"/><path d="M73.51,81.49c1,.15,1.95,1.28,2.75,1.89,1.06.81,2.17,1.56,3.27,2.34,2.85,2.06,5.64,4.5,8.77,6.13,1.29.67,2.68,1.27,4,1.93s1.11.53,1.3,1.83c.34,2.3.1,3.85-1.69,5.45,1.28,1.69,3.79,1.64,3.69,4.4-.06,1.75-.62,3.19-2.37,3.37a10.25,10.25,0,0,1-5.83-1.07c-4.44-2.1-9.09-3.26-13.78-4.68-4.21-1.26-8.52-2.89-12.86-3.63-2.95-.51-5.93-.84-8.9-1.22a24.13,24.13,0,0,0,7.7,2.38c2.36.34,4.6.71,6.92,1.25a104.26,104.26,0,0,1,15.3,4.5c3,1.21,4.16,3.94,4.7,7a32,32,0,0,1,.27,5.55c0,1.81-.7,3.18-1.06,4.89-.71,3.41,2.86,6.7.17,10,1.85-.68,3.33-3,4.49-4.54,2-2.62,5.63-4.74,8.6-6.06,3.64-1.62,6.89-4.41,10-6.8a13.27,13.27,0,0,0,4.37-6.54c.76-2.06,2.28-4.14,1.23-6.3a7,7,0,0,0-4.13-4.08c-2.8-1.14-5.3-2.75-8.07-3.93-1.88-.81-3.94-1.49-5.73-2.48-2.19-1.2-4.2-2.73-6.44-3.84a40.49,40.49,0,0,1-6.14-3.43c.86.34,1.56,1.33,2.4,1.82s1.9.93,2.83,1.43a7.25,7.25,0,0,1,2.39,1.66c1.76,2.45-5,.41-6.14-.11a57.66,57.66,0,0,1-6.71-4.11A11.39,11.39,0,0,1,76,84.4C75.19,83.5,74.58,82.73,73.51,81.49Z" fill="#343736"/><path d="M92,88.85c1.47,1.79,2.79,3.3,2.84,5.74a6.89,6.89,0,0,1-.07,2.57c-.55,1-2.42.52-2.61,1.07-.74,2,1.66,2.68,1.43,5.07-.2,2.07-1.77,2.77-3,4.1-2.08,2.22-1.38,1.45-1.31,4.13.06,2.5.57,3.29-1.08,5.33-2.93,3.62-7.13,1.85-7.14,7.49,0,5.9,2.51,10.47-2.36,14.58,3.59,4.76-8.72,10.5-11.85,11.48-5.54,1.73-15.2,4.38-17.91,10.17,5.18,1.9,12.86-1.21,17.49-3.18,3-1.26,7.31-2.53,9.61-5.15,2.14-2.44,3.45-6.07,4.79-9,3.19-7,4.44-13.68,10.93-18.58,5.41-4.08,12.57-9.44,14.64-16.36,1.49-5-1.19-8.26-4.14-12C100,93.59,97.92,89.18,92,88.85Z" fill="#343736"/><path d="M152.69,6.91s-2.48-2.47-11.31,0-23.84,9.65-32,25.54c-6.76,13.23-10.22,30.3-9.16,44.07s-3.73,36-12.56,40.23-7.06,19.78-9.18,24.37,3.75,5-7.21,7.17c-9.81,2-12.33,6.6-18,19.32-3.28,7.42-3.53,16.6,2.83,23.67s8.47,11.65,3.88,16.24,0,10.95,0,10.95.36-9.18,5.3-11.65,5.3-12,3.53-14.84-5.77-8.57-3.53-13.06c4.59-9.19,18-10.6,18-10.6L83.73,187s-.36-8.83,5.29-14.83,14.48-13.43,14.48-13.43-15.09,11.66-18.27,20.49-17.31,25.78-18,37.08S75,249.2,75,249.2h177s15.19-65,6.71-74.17-12-19.7-14.85-32.1c-1.39-6-7.75-9.58-7.75-9.58a26.27,26.27,0,0,1,10.24,2.12c7.1,3.47,11.83,4.9,9.54,11.66-2.16,6.36.7,15.89.7,15.89s4.69-15.18,2.48-23c-1.18-4.11-4.6-11.31-9.54-14.13s-15.19-3.53-18.72-7.42S220.85,103,221.2,88.15s3.54-27.91-4.23-47.68-15.19-28-32.14-34.66-26.14-1.72-26.14-1.72Z" fill="#fff"/><path d="M147.92,7.8c-5.49.72-9.52,8.92-12.42,12.88-.57-1.38,1.95-3.74,2.68-4.78-1.59-.1-3.79,1.61-5.18,2.31a39.47,39.47,0,0,0-4.8,3.18c-2,1.42-4.48,2.74-6.11,4.6-1.22,1.38-2.31,2.84-3.6,4.19a21.64,21.64,0,0,1,4.54-4.9,30.39,30.39,0,0,0,3-2.69,48.17,48.17,0,0,1,7.33-6.32c2.37-1.55,5-2.63,7.13-4.46,2.43-2.05,4.35-3.88,7.71-4.38a16.17,16.17,0,0,1,3.62-.16c2.9.27,1.55,1.38-.32,2a21,21,0,0,0-8,5.42A17.05,17.05,0,0,0,140,24.16c-.18,3.85,1.24,6.57,3.21,9.71s3.82,6.2,6.65,8.73,6.28,4.21,9.6,5.83c-1.75-.09-4.83-1.41-6.7-2.27-2.67-1.22-5.25-2.53-7.14-4.93-3.07-3.9-6.54-8.59-7.21-13.66-.18-1.42-.79-5.11-2.92-3.38-.6.49-1,2.4-1.32,3.2a7,7,0,0,1-2.64,3.79c-3.2,2.32-6.62,4.38-9.8,6.63-1.1.78-2.68,1.6-3.12,3-.34,1.1.11,2.7,0,3.88a19.54,19.54,0,0,1-3.08,7.59c-1.58,2.52-3.6,4.17-3.18,7.42.21,4.28,1.43,14.89,1.18,16.18-.79,4-.63,9.1-.35,13.23.14,2.1.82,4,1.07,6a32.42,32.42,0,0,0,2.29,8c1.85,4.67,4.83,10.17,8.67,13.47,3.57,3.07,6.29,7.73,8.09,11.94.62,1.47,1.59,2.74,2,4.22s.8,3.38,1,5c.46,3.43-.6,6.65-1.48,9.78-.45-3,.06-6.3-.1-9.37-1.74,1-2.84,3.06-3.86,4.82-1.28,2.22-4.14,2.61-5.61,4.66-.92,1.28-1.28,2.86-2.2,4.2-1.47,2.14-3.27,3-5.67,3.94a27.87,27.87,0,0,1,1.33-4,15.78,15.78,0,0,0,1.3-2.6c.21-.8-.14-1.61.08-2.39.31-1.08,1.27-1.86,1.58-3,.26-.95.07-1.89.28-2.84.37-1.69,1-3.28,1.31-5-2.63,3.42-6.72,5.16-10.22,7.45-1.46,1-2.6,2.17-4,3.12,4.86-1.83,7-5.34,7.42-10.42a105.4,105.4,0,0,0,.17-12.69c-1.16,1-1.48,3.16-2.36,4.51-1.66,2.55-4,4.19-6.26,6.09s-4.68,4.28-7.58,5.27c1.72-.89,4.27-2.08,5.22-3.83.75-1.39.36-3.9.36-5.44,0-3,.45-5.72.73-8.66a63.66,63.66,0,0,1,.84-8c.49-2.27,1.13-4.77,1.49-7.08.87-5.57,1.58-11.33.7-17.07a22.66,22.66,0,0,0-.81,3.89c-.51,2.23-1.65,4.44-1.57,6.77.27-5.5,1.63-10.54,2.33-15.89.49-3.82,1.12-7.67.35-11.56-1.37-7-.35-15,2-21.49a64.81,64.81,0,0,1,5-10.64c-2.07,1.85-3,4.68-5,6.61.67-9.48,9.57-11.19,15.39-16.69,3.11-2.94,4.86-7.23,8.29-10" fill="#343736"/><path d="M114.63,99.14c.55,1.33,1.42,2.57,2,3.9a41.7,41.7,0,0,0,2,3.93c1.54,2.64,3.63,5,5.34,7.57,1.53,2.29,3.27,4.33,5,6.49a9.4,9.4,0,0,0,1.21,1.59,6.32,6.32,0,0,0,2,.87,28.48,28.48,0,0,0,6.28,1.15c1,.09,2.06,0,3.07,0a16.77,16.77,0,0,0,2.78-.36,13.66,13.66,0,0,0,2.84-.52c.8-.3,1.55-.72,2.33-1.07,1.66-.77,3.48-1.44,4.76-2.82,1.79-1.94,3.12-4.21,4.87-6.18a49.36,49.36,0,0,1,3.41-3.67c.64-.59.91-1,.61-1.8-.42-1.26-.88-2.51-1.27-3.79-1.13-3.79-.59-8.58,2.89-11,1-.69,1.92-1.53,2.9-2.27s2-1.29,2.85-2A7,7,0,0,0,173,82.76a4.89,4.89,0,0,0-3.49-4.42,13.61,13.61,0,0,0-5.59-.65c-.76.13-1.62.71-2.4.49.14-.47,1.43-.77,1.92-.88a10,10,0,0,0,1.35-.25,11.09,11.09,0,0,1,1-.46c2.16-.53,4.75-.16,7-.16a9.94,9.94,0,0,1,4.79.78A6.75,6.75,0,0,1,180.09,81c1.51,5.89.18,12.12-.58,18-.26,2-.47,4-.85,6a26.06,26.06,0,0,1-1.42,4.41c-1.57,4.23-2.28,8.62-6.16,11.46a24.3,24.3,0,0,1-6.15,2.75c-2.09.75-4.29,1.28-6.42,1.91s-4.43,1.31-6.62,2a29.81,29.81,0,0,1-10.17,1.55,16.56,16.56,0,0,1-4.23-.91,34.33,34.33,0,0,1-4.79-1.75,15.74,15.74,0,0,1-5.92-4.42c-2-2.45-4-4.91-5.87-7.42a41,41,0,0,1-6.23-10.71,10.16,10.16,0,0,1-.65-3.57C114,99.79,113.89,99,114.63,99.14Z" fill="#343736"/><path d="M161.25,49.34c1.53.3,4,3.15,4.24,4.63.58,3.32-4.07,1.21-5.07,2.62-1.47,2.09,4.46,3,5.59,3.52,1.94.8,5.06,2.47,5.6,4.7.82,3.34-3.19,2.2-5.15,2.3,0,1.32-1.83,4.4-1.22,5.41.72,1.18,3.37,1.1,4.43,2,1.36,1.12,1.29,3.07,2.49,4.32s2.91,1.76,4,3.21,2.08,3.37,3.28,4.87c1.5,1.88,3.36,3.16,4.71,5.21a27.47,27.47,0,0,1,3.78,7.94c.54,2.33-.48,3.91-1.1,6a43.82,43.82,0,0,1-3.19,8c-.89,1.73-1,4.43-1,6.39,0-2.8,1.52-4.24,2.89-6.52,1.62-2.68,3.86-5.7,4.68-8.71.71-2.63.92-5.88-.31-8.39a57.49,57.49,0,0,0-4.35-7.25C184,87.41,182.12,86,181,83.65a31.52,31.52,0,0,1-2.67-8.24,59.5,59.5,0,0,1-.53-9.26,19.41,19.41,0,0,0-2-9.12c-1.23-2.6-3.65-3.88-6-5.33A16.3,16.3,0,0,0,161.25,49.34Z" fill="#343736"/><path d="M168.27,75.56a4.69,4.69,0,0,1,2.65,4.37c0,2.58-1.86,4.23-3.63,5.94-1.49,1.45-3.32,3-4.06,5A44.77,44.77,0,0,0,161,96.31c-.72,3.08.47,7.41,2.23,9.87.9,1.26,1.66,2.17,3.2,1.47,2.29-1,4-3.49,5.25-5.6a42.65,42.65,0,0,0,4-7.53c.73-2,.63-3.92.94-6C177.52,82.17,174.89,74.78,168.27,75.56Z" fill="#343736"/><path d="M148.4,43.64c-.15,1.38,1.68,3.68,2.52,4.87,1.42,2,3.17,3.79,4.74,5.7,2.25,2.73,4.62,5.27,6,8.57a71.2,71.2,0,0,1,3.29,11.08c1.26,5.44-2.21,9.3-4.36,13.87a26.64,26.64,0,0,0-2.25,14,16.2,16.2,0,0,0,6.1,9.42c-1-.31-1.87-1.8-2.46-2.6a11.54,11.54,0,0,1-1.64-3.2A24.3,24.3,0,0,1,159,98a14.26,14.26,0,0,1,1.16-6.66c1-2.18,1.78-4.24,2.82-6.44.93-2,2.48-3.42,3.3-5.48a15.75,15.75,0,0,0,1.06-5c.08-1.83-.69-3.47-1.19-5.18-1.75-5.93-4.51-12.22-9-16.72a34.69,34.69,0,0,1-5.07-5.93c-1.32-2.14-3.94-3.18-5.27-5.26A3.27,3.27,0,0,0,148.4,43.64Z" fill="#343736"/><path d="M138.21,137.55c0-2.7.69-5.3.28-7.93,1.56.13,3,.67,4.61.81,2.46.2,5.1.18,7.58.52,2.33.32,5.56.64,7.45,2s1.87,3.64,1.67,5.73a6.45,6.45,0,0,1-1.2,3.16c-.52.75-1.73,1.64-2,2.44,3.47.16,5.86-2,8.47-4a41.51,41.51,0,0,0,4.3-3.59c1.12-1.14,3.59-2.89,4.06-4.47-.33,2.57-2.38,4.68-3.78,6.74-1.54,2.26-3,4.58-4.58,6.8-1.19,1.68-2.5,3.24-3.78,4.84s-2.6,2.73-3.75,4.18c1.17.38,4.78-3.63,5.91-4.48a22.28,22.28,0,0,0,4.19-3.92c1.44-1.82,2.94-3.64,4.33-5.47a43.5,43.5,0,0,0,3.68-6.08,42.81,42.81,0,0,0,4.22-12.83c.73-4.15,1.7-8.31,2.68-12.46.7-2.92,1.36-5.58.82-8.62-.23-1.32-1-3-.9-4.29s.88-1,1.22-2.16c4.74-.72,3,12.91,2.48,15.47,2.08-.69,2.77-3.91,3-5.71.27-2.23-.39-3.82-.86-5.94a15.29,15.29,0,0,0-1.14-4.19,40.07,40.07,0,0,0-3.71-4.94c-1.29-1.62-3.32-3.7-4.92-1.54a21.48,21.48,0,0,0-3.38,6.22c-.49,1.57-.54,3.22-1,4.8a60.68,60.68,0,0,0-2,6.86c-.87,4.25-1.27,8.53-4.55,11.41-3.91,3.44-8.49,4.88-13.42,6.41-3.13,1-6.33,2.22-9.61,2.53-1.82.17-3.66.12-5.49.13-3.17,0-6.64-2-9.68-1.55-.15,3,1.38,5.73,2.93,8.23,1.17,1.89,3.15,3.84,1.73,5.93a15.62,15.62,0,0,0-2.28,3.55c-.59,1.55-.87,3.17-1.4,4.72-1.09,3.12-1.37,6.41-2.34,9.55.1-2.19,2.71-3.54,3.68-5.35a31.55,31.55,0,0,1,2.3-3.5c1.64-2.23,2-4.78,2-7.57a8.7,8.7,0,0,0,1.85,5.64c1,1.33,2.91,4.07,4.64,4.4-1.76-1.93-2.29-4.14-3-6.56A17.33,17.33,0,0,1,138.21,137.55Z" fill="#343736"/><path d="M133.44,26.34c.64,3.22,3.85,6.81,5.66,9.5s3.22,5.29,5,7.89c3.5,5.15,8.44,8.16,13.15,12.11-1.25-1.13-1.68-2.65-2.48-4.07-.67-1.18-1.64-2.22-2.25-3.39-1.12-2.12-2.07-4.12-3.21-6.19-2.53-4.58-6.71-8-8.87-12.92a32.57,32.57,0,0,1-2.25-7.86C136.7,21.41,133.41,24,133.44,26.34Z" fill="#343736"/><path d="M144.74,27.75c0,8,8.68,12.25,14.82,15.52a101.25,101.25,0,0,0,12.75,5.58c4.39,1.62,5.84,5,7.08,9.15s.67,8.28.87,12.55c1.57-2.94,1.36-6.32,1-9.6s-2-5.86-2.59-9c1.36-.22,2.86,2.34,3.64,3.33a14.93,14.93,0,0,1,2.83,6.21,28.15,28.15,0,0,1-.12,13.07c-.72,2.55-1.31,4.3-.31,6.78a50.44,50.44,0,0,0,2.92,5.21,38.48,38.48,0,0,1,4.9,16.61c.13,3,.25,5.34-1.37,8a46.51,46.51,0,0,0-2.54,4.73,88.44,88.44,0,0,0-4.27,11.88c-2.11,6.81-7,12.73-11.07,18.78-1.2,1.8-2.57,3.35-3.82,5.17a49,49,0,0,1-4.26,4.74c-2.82,3.18-4.57,7.3-5.87,11.13,2.3,0,4.36-.69,6.57-.87,3.94-.33,8.17,0,12.09,0a60.07,60.07,0,0,1,7.72.77c3.54.45,7.28.11,10.83.11,2.58,0,7.24.89,9.83,0a2.65,2.65,0,0,0,1.85-1.43c1.17-2.3,1-6.31,1.35-8.78.49-3.6.45-7.35.67-11,.24-4.12.11-7.81.72-11.9s.6-8.07,1.31-12c.58-3.25.57-6.63,1-9.9.58-4.18.48-8.8.68-13,.17-3.32,1-6.45,1-9.77,0-2.49-.09-3.93.72-6.17.94-2.57,1.39-5.29,2.37-7.81s2.45-4.61,3.07-7.3a27.51,27.51,0,0,0,.52-8.83,71.7,71.7,0,0,0-3-15.76,111.67,111.67,0,0,0-4.24-10.64c-1.56-3.38-4.43-6.2-6.34-9.46-1.7-2.92-3.22-5.42-6-7.38s-5.68-3.88-8.48-5.93a45.36,45.36,0,0,0-19.88-7.92c-3.76-.48-8.83-.88-12.62-.27A11.28,11.28,0,0,0,157.41,4c-1.56.89-3.52,1.32-4.93,2.41,6.45-1,14.46-2.13,20.81-.31,7.1,2,16.09,4.58,21.52,9.82,3.44,3.31,5.55,8.06,8.34,11.9,1.08,1.48,2.31,2.88,3.34,4.35a27.51,27.51,0,0,1,2.63,5.19,85.93,85.93,0,0,0-10.69-14.14c-3.15-3.44-7.05-5.61-11.21-7.63,3.83,1.54,6.71,8.18,8.22,11.73a61.69,61.69,0,0,0,7.2,13.38c6.11,8.2,10.75,20.06,5.65,29.79,0-1.94.89-3.83.91-5.86,0-2.74.51-6.21-.36-8.82s-3.34-5.19-5.23-7.21a114.19,114.19,0,0,1-7.46-8.91c-3.78-5-4.08-11-7.71-16.09-3.83-5.32-8.85-7.46-15.32-7.92,4,1.46,6.24,4.56,8.64,7.69-2.47,0-5.74-1.32-8.26-1.75,2.76,2.06,3.12,4.65,4.52,7.59a17.73,17.73,0,0,1-2.35-.63c4.1,5.35,11.19,7.93,13.78,14.31a23.34,23.34,0,0,0,3,5.76c1.79,2.24,3.55,3.72,4.89,6.38,2.05,4.09,3.88,11.85,2.57,16.44-1.1,3.81-2.53,7.43-2.41,11.56,0-5-1.59-9.65-1.59-14.68,0-3.09.13-5.63-1-8.51a54.37,54.37,0,0,0-4.81-8.7c-2.07-3.37-3.92-5.8-7.33-8a85.82,85.82,0,0,0-11.7-6.06c-6.61-3-11.37-6.45-14.67-13.11a89,89,0,0,0,5.65,11c2.69,4.39,7,6.53,11.45,8.76,2.76,1.39,7.64,4.42,8.73,7.53-5.57-7.75-16.28-7.49-23.45-13.14C154.38,34.63,149.86,29.84,144.74,27.75Z" fill="#343736"/><path d="M219.26,45.94c.42,1.84,1.31,3.2,1.41,5.3s-.2,4.09.53,5.84c1.69,4.09,1.59,9.12,1.59,13.69,0,1.92-.08,3.77-.26,5.64-.26,2.6-1.17,6.88-1.43,9.43-.49,5,.83,7.85,1.52,12.63a33.92,33.92,0,0,0,1.16,6.24c.62,1.79,1.44,3.39,2.15,5.16,1.47,3.68,3.21,8.17,6.68,10.56,3.21,2.21,7.36,2.28,11,3.29,5.43,1.5,9.71,4,12.51,9.12a25.85,25.85,0,0,1,3.39,12.39,53.41,53.41,0,0,1-1.06,7.37c-.42,2.85-.48,5.75-.9,8.6a22.21,22.21,0,0,1-1.37,4.05c-.16-2.72-.89-5.3-.91-8s-1-4.74-.73-7.35,2-5.78.25-8.22-6.07-4.8-8.53-6.18c-3.44-1.91-6.71-.59-10.45-1.61a6.06,6.06,0,0,1,3.44,1.91c1.12,1.6,2,2.22,3.16,3.82,2.4,3.36,3.39,9.8,4.94,13.62,1.46,3.6,2.68,7.21,4,10.8,1.15,3.1,4.22,6,5.5,9-1.37,0-4.53-2-5.64-2.74a47.57,47.57,0,0,0-7-3.88c-2.32-1.05-8.08-3.68-7.58-6.88,2.69,2.23,3.89,7,4.18,10.47.35,4.16-2.07,7.26-3.17,11.15-1.06,3.71-3.55,6.45-5.85,9.4-1.44,1.84-3.76,2.91-5.13,4.82-.55.76-.53,1.51-1.44,2.13,1.63.2,3.39-1.69,4.76-2.51,3.49-2.07,3.38-2.88,3.93-6.95a125.46,125.46,0,0,0,1.25-16.53,28.77,28.77,0,0,1-2,9.54c-1.71,3.84-4.58,5.91-7.82,8.3-2.13,1.57-4.1,3.35-6.28,4.84-1.16.79-2.7,1.28-3.58,2.41a37.2,37.2,0,0,0,1.9-4.74c.86-3,3.4-5.95,3.56-9.14-2.27.91-4.42,3.09-6.53,4.42a79.07,79.07,0,0,1-7.77,3.86,10.33,10.33,0,0,0,3.78-9.11c-3.28.28-6.9,4.17-9.39,6.15-1.92,1.53-3.28,3.83-4.73,5.89-1.83,2.59-1.47,5.28-2.72,8-.39-1.4-.34-3.24-.64-4.73-.39-2-1.44-4-1.45-6a11.43,11.43,0,0,1,2.88-7.88c-5.5-.08-9.18,8.06-10.29,12.38-.22.83-1.51,5.14-2.41,5.51-.7.3-4.14-1.17-5.07-1.34a75.91,75.91,0,0,0-13.29-1.17h-7c-2,0-3.3.56-4.23-1.29a51,51,0,0,1-4-13.27c-1-5.4.68-9.93,3.41-14.44,2.13-3.51,3.65-7.54,5.93-11.06.26,1.57-.91,2.89-1.57,4.22a50.14,50.14,0,0,0-2.93,6.8,25.92,25.92,0,0,0,.24,16.42c.61-2.23.45-4.73,1-7a51.49,51.49,0,0,1,2-6.35,10.74,10.74,0,0,1,6.25-6.73c1.4-.62,2.79-1.22,4.18-1.82,3.39-1.49,6.24-2.48,9.27-4.88,3.84-3,8.2-5.27,12-8.48,4.58-3.91,7.36-9.15,9.28-14.81,1.37-4,2.5-7.71,4.21-11.61a54.76,54.76,0,0,0,3.95-13.27c1-7,2.08-14,3-21,1.31-10,7.25-18.84,7.24-29.07,0-4.08-.52-8.47-.18-12.51C215.49,47,218.58,42.52,219.26,45.94Z" fill="#343736"/><path d="M103.5,101.39c0,8.56-3.35,17.34-7.12,24.88,1.8-1.38,2.32-3.92,4.42-5.28a7.45,7.45,0,0,1,4.78-1c.22,4.12-3.64,10.45-5.77,13.88-2.6,4.2-8.75,7.2-10.53,11.7,1.72-.31,3-1.59,4.72-2.08a7,7,0,0,1-1.14,4.19c4.16-1.81,11-3.71,13.79-7.4-.71,3.72-2.33,7-2.76,10.89-.37,3.4-.21,7.63-1.7,10.82,2-7.3,7.67-9,13.21-13.12.83,5.23-2.87,12-5.27,16.31-2.11,3.78-3.2,8.63-4.09,12.83a52.56,52.56,0,0,1-2,8.28c-.69,1.78-1.64,2.93-1.27,4.88.54-3.91,3-7.08,4.61-10.7s2.51-6.12,5-9.41a83.9,83.9,0,0,1,6.66-7.57c3.35-3.5,7.66-6.07,7.25-11.66.19,5.53-3.46,10.17-5,15.43a84.34,84.34,0,0,0-2.72,15c-.36,3.27-1.32,6.32-1,9.69.35,3.8,1,7.62,1.34,11.45,0-2.66-.21-5.4,0-8,.11-1.5.86-7.37,2.12-8.09,4.48,8,7.59,15.81,15.27,21.29,5,3.56,9.25,8.42,13.29,12.95,2.27,2.54,4.6,4.51,6.21,7.54.76,1.43,1.32,2.94,2.13,4.34,1.25-4.89-.35-10.87-.34-15.94,0-5.31-.25-9.72-1.91-14.68-1.3-3.9-2.66-7.42-5.5-10.52-3.14-3.43-8-5.09-11.37-8.51-6.46-6.52-8.12-16.25-7.72-25.35.2-4.46,1.53-8.64,2.33-13,.58-3.18,1.74-9.21-.11-12.08s-7-5.09-9.77-7.37a29.49,29.49,0,0,1-5.23-6.22c-2.8-4-6.2-7.81-6.86-12.73-2.77,4.81-4.84,7.89-9.61,10.61C100.83,114,102.14,108.5,103.5,101.39Z" fill="#343736"/><path d="M260.1,80.48c-4.38.15-7.45,2.66-11.71,2.47a31.25,31.25,0,0,1-14-4.51c-8.07-5.11-2.42-15-8-22-1.56-2-2.76-3.62-5.2-5s-5.75-1.76-7.67-3.57c2-.66,4.72-1.2,6.69-2.47,1.78-1.14,3.7-3.08,5.49-4.32,3.64-2.52,8.8-4.53,13.7-3.83a26.94,26.94,0,0,1,12.45,5.43c4.59,3.9,4.24,5.24,6.51,9.13.06-2.52-1.1-5-1.44-7.49s-.87-5.29.14-9c1.47-5.37,5.12-8.56,11.75-10.14,5.73-1.37,10.12-.41,15.89-2.38,6.12-2.09,6.34-4.49,10.55-8.12a27.66,27.66,0,0,1,.58,6.13c0,2.34.92,4.54,1.59,6.89,1.17,4.13,1.72,6.17,2.68,10.28,2.14,9.12,0,17.77-5.31,25.55,2.56-2.88,7-5.9,10.24-7.74,5.33-3.08,11.28-1.93,16.09,1.31,3.95,2.66,5.67,5.05,8.37,8.79,2.88,4,5.75,5.15,10.19,7.25-5,.39-10.48-1.54-14.31,3.4-2.79,3.59-3.74,8.29-5.79,12.37-4.66,9.25-18.74,18.52-28.37,9.42-1.73-1.63-3.33-4.65-4.53-6.69-1.36-2.31-2.85-3.78-4.25-6-6.13.66-10.13,8.82-11.39,14.32-1.47,6.42,1.54,13.39,3.06,19.79,1.86,7.83,6.31,15.17,9.41,22.6,1.84,4.4,3.46,8.55,5.59,12.79a133.47,133.47,0,0,1,6.86,17,94.06,94.06,0,0,1,3.84,23.31c.27,13-2.3,20.37-3.84,29.27-1.68,9.71-5,16.55-8.21,25.82-1.72,4.9-6,8-8.61,12.45-3.66,6.32-9.58,4.64-14.77,9.56-10.17,9.65-25,14-38.45,17.43-9.69,2.46-19.3,5.63-29.23,6.58-12.07,1.15-22.45-3.23-34.16-5.54-11.45-2.25-23.62-4.76-34.43-9.18-15.25-6.25-31.88-11.19-45.57-20.38-9.37-6.3-16.51-15.31-24.08-23.43,11.48-2.89,22.73-6,32.92-12.29,5.47-3.39,11.2-6.94,16.49-10.63,4.25-3-14.57,20.71-10.78,17.44,4.12-3.56,21.23,4.35,24.31,0,2.18-3.1,20.58,12.1,22.46,9.16,6.08,15.45,12.17-32.38,26.11-24.82,12.83,7,24.42,14,39.12,16.51,14.93,2.51,32.64,4.09,43.72-8,10.88-11.85-70.07,55.95,3.74-40.93,6.09-8,6.89-18.32,4.69-30.74-1.44-8.18-6.92-24.57-8.3-32.92A61.42,61.42,0,0,1,260.1,80.48Z" fill="#343736"/><path d="M80.1,128.48c1,4.73-.72,12.13-2.92,14.11-2.83,2.55-5.92,4.49-8.66,6.79-5.38,4.53-12.17,12.26-11.66,23.32-.49-4.43,3.15-9.72,5-11.82a63.58,63.58,0,0,1,8.33-7.22c3-2.37,6.54-3.71,9.32-6.67,3.1-3.29,3.62-5.69,3.92-11.52a72.63,72.63,0,0,0-1.15-15.1C82,121.72,80.49,125.17,80.1,128.48Z" fill="#343736"/><path d="M173.52,180.33c-3.87.24-9.73,5.29-12.69,7.7a46.84,46.84,0,0,1-8,5.57c-6.22,3.42-9.18,5.87-15-.91-3-3.53-5-12.59-10.33-8.83-4.21,3-4.54,9.82-4.53,14.63,0,6.84,2,13.26,2.69,19.87-9.34-8.88-11-24-10.8-36.8-.76,4-1.11,7.53-2.06,11.46-1.44,6-.51,11.94-1.63,17.87-2.79-3.5-.94-13.24-.92-17.59a60.68,60.68,0,0,1,.8-9c-2,8.38-9.56,16.91-14.53,23.94-1.19-13.34,3.36-25.33,7.31-37.74.37,3.38-1.87,9.43-4.24,11.61A103.06,103.06,0,0,0,104,166.19c.53-2.84,0-5.76.75-8.58-4.14,6-5.81,13.51-11.23,18.73,1.76-3,1.86-6.06,2.07-9.4-2.77,7-6.41,14.51-11,20.3-2.54,3.17-6.37,5-8.48,8.47-3.41,5.62-9.17,12.34-9.53,18.79-.49,8.7,1.24,15.06,6.18,21.79s14.08,8.47,21.89,10.46c18.56,4.75,38.05,6.26,56.92,9.64a52.56,52.56,0,0,0,21.24-.13c9-2.12,19.39-1.76,29-1.76,7.61,0,17.82,1.44,25.08-.93,7.9-2.58,16.5-5.11,24.05-8.48s16.52-8.84,21.23-15.66c5.54-8,11.07-17.4,12.81-27.23,1.27-7.2-.5-14.42-2.21-21.19-1.51-6-5.81-6.27-11.09-6.69-6.71-.52-13.3-3.39-19.5-5.69s-8.65-2.84-13.57-7c-3.7-3.11-8.67-2.79-13.36-2.89-8.25-.19-14,1.29-21.85,3.95C192.79,166.3,184,175.3,173.52,180.33Z" fill="#343736"/><path d="M234.89,130.53c8.5-1.44,10.45,12.19,14,16.69,2.26,2.84,4.38,5.63,6.52,8.58s2.51,5.69,3.21,9.36c.75,4,1.33,8,.6,12.08,0-4,.91-8.09-.58-11.8a40.52,40.52,0,0,0-7-11.11c-3.38-3.88-6.9-7.13-9.93-11.29-1.73-2.37-3.12-4.95-5-7.17C235.24,134.12,233.32,133.37,234.89,130.53Z" fill="#343736"/><path d="M219.79,58.48c.58,5.13,3.15,9.62,4,14.62a83.08,83.08,0,0,1,1.34,13.46c0,4.52-1.17,9.92.5,14.06,1.83,4.54,6.58,6.78,8.75,11.09,2.51,5,.54,10.2-1.22,14.76,4.24-2.5,5.45-9.33,4.56-13.83-1.19-6.1-6.53-9.6-8.57-15-1.92-5.12-2.42-10.75-3-16.09-.26-2.57.27-5.23,0-7.8-.3-3-1.64-5.92-2.37-8.85-.79-3.12-1.32-6.43-2.34-9.6-.68-2.12-1.23-6.46-3-7.78C217.47,50.49,217.33,56.12,219.79,58.48Z" fill="#343736"/><path d="M140.47,86c.22-1.37.76-2.59,1-4.4a26.06,26.06,0,0,0,.77,2.75,10,10,0,0,1,.39,1c.09.38-.11.92.24,1.2s1.15.15,1.54.36a3.62,3.62,0,0,1,1,1,8.73,8.73,0,0,1,1.43,2.44,4.48,4.48,0,0,1-.47,4.6c-1.19,1.94-2.86,2.56-4.84,3.35-.44.18-.89.24-1.31.46-.2.09-.24.33-.49.42s-.41-.09-.6,0c-.65.17-1.65.82-1.67,1.65.21-1-1.61-2.28-2.24-3-1-1.07-2-.57-3.21-1-.9-.35-.57-1-1.11-1.61s-1.38-.27-1.85-.75c-.84-.84-.72-2.35-.43-3.42.47,1.39.49,2.26,1.94,2.78,1.24.43,1.87,1.53,2.93,2.1.77.4,1.1,0,1.68-.47a5.37,5.37,0,0,1,2.2-1c1-.19,2.83.31,2.81-1.32a7.14,7.14,0,0,0,1.39-1.15c.61-.51.51-.64.75-1.32s1-2.45.56-3.12C141.86,86,140,88.91,140.47,86Z" fill="#343736"/><path d="M142.66,103.94a11.2,11.2,0,0,0-1.13-.21A4.12,4.12,0,0,1,142.66,103.94Z" fill="#343736"/><path d="M154.23,105.52h0Z" fill="#343736"/><path d="M129.77,104.48c2.69.93,5.6.74,8.33.55a17.29,17.29,0,0,1,3.58.28c.66.1,1.56.27,1.43-.74a.78.78,0,0,0-.45-.63,23.43,23.43,0,0,0,5.15,1.09c1.08,0,2.09-.6,3.16-.5s2.19,1,3.26,1a10.38,10.38,0,0,0-3.19.08,9.7,9.7,0,0,0-3.51,2c1.29-1.51-3.43-1.33-3.92-1.31-1.46.05-2.88.63-4.34.64a28.91,28.91,0,0,1-5.14-.79c-1.51-.28-3-.24-4.33-1a13.06,13.06,0,0,0-2.23-1,13.18,13.18,0,0,1-2.58-1C125.77,102.05,128.84,104.16,129.77,104.48Z" fill="#343736"/><path d="M129.42,109.15a5,5,0,0,1-1.48-1.57c.85.41,1.11,1.13,1.74,1.73A2.26,2.26,0,0,1,129.42,109.15Z" fill="#343736"/><path d="M140.23,111.7a13.49,13.49,0,0,0,2.46-.34,17.5,17.5,0,0,0,2.05-1c1.31-.57,2.56-1.17,3.83-1.81a13.19,13.19,0,0,0-2.89,3,2.84,2.84,0,0,0-.78,1.49c-.22,1.19-.09,1-1.21.67a23,23,0,0,0-6-.72,23.68,23.68,0,0,1-3.37,0c-.95-.12-2.09,0-3-.15,1.4-.79.84-1.54,0-2.47l.24.12A16.3,16.3,0,0,0,140.23,111.7Z" fill="#343736"/><path d="M131.3,110.41a7.49,7.49,0,0,1-1.56-1l-.06,0a5,5,0,0,1,1.43.89Z" fill="#343736"/><path d="M164.54,48.85c1.31.47,2.61,1,3.73,1.44a8.19,8.19,0,0,1,4.57,4.77c-.4-.54-1.39-1.62-2.07-1.46s-.2,1.68-.29,2.28a6.44,6.44,0,0,1-.54,2c-.63,1.08-1.66-.19-2.52-.53-3.67-1.45-8-.71-11.43,1-.81.4-1.41,1-2.21,1.46A23.84,23.84,0,0,1,150.89,61a23.31,23.31,0,0,1-3,1c-.86.2-2.16.2-2.52,1.22a6.39,6.39,0,0,0-1.55,2.08,17.81,17.81,0,0,0-2.11,4.09,20.6,20.6,0,0,0-.47,3.5,8.17,8.17,0,0,0,.32,3.65c.7,1.94,1.73-.58,2.28-1.29,1.13-1.49,2.48-1.14,4.14-.59a33.14,33.14,0,0,0,5.8,1.5c3.05.42,6.87.76,9.86-.13,2-.58,5.73-4.88,7.2-1.76a10.21,10.21,0,0,1,.86,6A15.25,15.25,0,0,1,170,85.08c-.78,1.64-1.41,3.38-2.27,5a28.39,28.39,0,0,1-4.2,5.36A3.08,3.08,0,0,0,163,98a18.71,18.71,0,0,1,.25,4.22,12.64,12.64,0,0,1-1.07,3.82c-1.48,3-3.69,5.55-5.42,8.42-.37.61-1.73,1.92-.87,2.48a1.47,1.47,0,0,0,1.41-.14c-1.18,1.38-3,2.36-4.29,3.69A14.28,14.28,0,0,1,141.53,125c-2.09-.06-4.76.08-6.67-1,1.43,1.23,3.83,1,5.57,1.09a25.81,25.81,0,0,0,5.63-.22,22.51,22.51,0,0,0,10.68-5.62,39.19,39.19,0,0,1,5.22-4.57,44.41,44.41,0,0,0,6.12-4.5,31.33,31.33,0,0,0,4.4-6.13c.69-1.2,1.25-2.46,1.88-3.64s1.65-2.51,2.36-3.83c3-5.71,3.34-12.63,4.2-18.94a26,26,0,0,0,.55-6.56c-.28-2.31-.75-4.62-1.19-6.9a29.14,29.14,0,0,0-3.72-10,8.47,8.47,0,0,0-5.25-4.19A62.82,62.82,0,0,0,164.54,48.85Zm-.17,14c-.89.85-3-1.11-3.67.36-.19-.05-.85-.51-1-.48-.46.12-.34.54-.87.64s-.94-.16-1.38-.1-1.07.26-1.64.34-4.72,1-4.58,0a25.86,25.86,0,0,1,7.93-2.86,18.33,18.33,0,0,1,3.92,0c.68,0,1,.14,1.25.75C164.46,61.66,164.73,62.48,164.37,62.81Z" fill="#343736"/><path d="M110.51,66v.07l0-.15Z" fill="#343736"/><path d="M129.72,65.77a18.92,18.92,0,0,1-2.09-1.53c-.91-.2-1-1.37-1.56-1.93a8.38,8.38,0,0,0-1.7-1.07c-1.27-.69-2.54-1.27-3.76-2-1-.63-1.76-1.48-3.06-1.49h-.13l-.12,0c-.41.18-.84.19-1.26.38a2.44,2.44,0,0,0-.79.6l.17-.09a9.75,9.75,0,0,0-1,1.09,14.88,14.88,0,0,1-1.27,1.47c-.4.36-1.13.82-1,1.42,1.06.19,2-1.36,2.91-1.86s3-.52,3,.82a9.08,9.08,0,0,0-2.15.46c-.61.33-1.12.85-1.72,1.18s-1.89.82-2,1.54.8,1.68,1.34,2c-1.35.13-1.73-1.3-2.65-1.75l-.06.14c-.22,1,1.14,2.16,1.87,2.58a3.12,3.12,0,0,1-2.26-.72c0,.13-.13.16-.26,0a3.2,3.2,0,0,0,.11.69,2.1,2.1,0,0,0,.92.92,10.65,10.65,0,0,0,1.65.55,4.71,4.71,0,0,1,1.08.23c.46.27.2.23.34.56s-.18.2.21.59c.12.11.53.17.67.29s.28.49.38.61a3.19,3.19,0,0,0,.73.65,15.65,15.65,0,0,0,4.23.84c.35,0,1.62-.07,1.67.24.13.82-2,.32-1.4,1.62.28.62,2.25,1.25,2.89,1.45a2.79,2.79,0,0,0,1.89,0,21,21,0,0,0,4.25-2A4.71,4.71,0,0,0,131.29,73c.38-.47,1.12-.92,1.43-1.4.84-1.3-.46-3.12-1.29-4.06C130.89,67,130.32,66.32,129.72,65.77Z" fill="#343736"/><path d="M236,38.69c5.42,0,12.73,2.67,16.47,6.66,1.63,1.74,4.6,4.72,3.14,7.11s-5.67,2.14-7.54.79a15.64,15.64,0,0,1,2.09,3.67c-2-.35-4.39-4.43-5.67-5.94-1.53-1.81-3.43-3.41-4.89-5.18s-2.69-4.22-4.75-4.81c-2.63-.75-5.11.64-7.39,1.27,1.24-.64,2.5-1.48,3.84-2S234.1,39.64,236,38.69Z" fill="#fff"/><path d="M273.8,26.59c-2.3-.62-7.13,1.25-9.28,2.4-3,1.59-3.9,3.3-5,6.28,2.84-3.63,6.14-5.12,11.13-5,.42,3.15-.4,5,2,7.41s3.16,4.21,4.46,7.18c1.29-.7,2.18-1.74,3.41-2.5,1.53-.93,3.2-.85,5-.95,3.44-.18,6-.4,9.14,1.1,1.19.58,3.41,2.58,4.15.69.36-.94-.51-2.83-1-3.68-.34-.59-1.17-1.1-1.5-1.57A26.69,26.69,0,0,1,295,35.41c-.89-1.66-2-3.06-2.93-4.59s-1.74-2.58-1.59-4.43c.13-1.64,1.38-3,1.16-4.65-1.16,3.45-4.48,3.12-7.59,3.6C281.34,25.76,277.65,26.8,273.8,26.59Z" fill="#fff"/><path d="M313.37,55.4c-2.12.06-5.31,2.6-4.62,5,.52,1.77,1.49,1,2.92,1.36s2.83,1.46,4.52,1.36c-.07,1.09-1.21.9-2,1.51a26.75,26.75,0,0,0-2,2,14.15,14.15,0,0,1-7.61,3.4c4.54.8,9.14-.36,10.86,5.24.65,2.11.76,4.64,1.35,6.78s1.15,4.46,2.76,1.24c1.76-3.54,2.48-7.89,5-10.92,1.53-1.79,3.26-2.3,3-5-.18-1.71-1.59-3.51-2.65-4.86C322.64,59.62,317.76,56.06,313.37,55.4Z" fill="#fff"/><path d="M295.5,45.79c-3.48,0-6.32-1.68-9.81-.72-3.14.87-7.29,2.71-7.84,6.35-.47,3.06-1.16,6.29-1.36,9.41a26.18,26.18,0,0,1-.58,5c-.45,1.82-1.27,3.5-1.56,5.42,2-3.2,3.87-4,7.42-4.39A17.23,17.23,0,0,0,291,63.56a19.35,19.35,0,0,0,5.45-8C297.22,53.72,297.68,47.78,295.5,45.79Z" fill="#fff"/><path d="M299.35,73.84c1.77,0,4.93-.52,6.68,0,1.38.44,2.54,1.94,3.49,3,2.31,2.5,5.15,4.67,5,8.35s-3.52,8-6.35,10.38c-3.09,2.65-8.49,2.9-12.08.94-2.1-1.15-3.37-3-4.61-5s-3.34-4.08-3.89-6.31c5.26-1.42,10.76.34,14.78,3.69-1.06-2-1.12-4.08-3.3-5.32a22.71,22.71,0,0,0-4.74-1.64,23.73,23.73,0,0,0-9.4-.71c.41-1.42,2.17-1.13,3.31-1.62,1.55-.66,2.81-1.81,4.37-2.37C294.7,76.46,297.76,75.88,299.35,73.84Z" fill="#fff"/><path d="M270.38,90.16c.08,2,2.37,2.89,3.67,4-1.44,1.26-2.11,1.43-2.33,3.51s.33,3.39-1.14,5c-1.86,2-6.95,3.42-9.52,1.87,1.56,0,4.28.63,5.29-.86s-.94-2.92-1.4-4.43C263.88,95.78,266.52,92,270.38,90.16Z" fill="#fff"/><path d="M271.34,105c-2,.19-4.42.84-4.23,3.07a27.1,27.1,0,0,0,1.17,4.52c.93,3,4,7.34,7.46,7.18" fill="#fff"/><path d="M264.36,112.58a10.51,10.51,0,0,0,2.16,4c.57.73,2.4,1.88,2.47,2.67.16,1.74-5.75,5.68-7.09,5.56-.19-2.11,1.33-3.58,1.72-5.46S263.91,115.45,264.36,112.58Z" fill="#fff"/><path d="M272.11,120.51c-.45,2.19-2.69,2.09-3.76,3.54-.87,1.2.73,3.52,1.45,4.87,2.41,4.49,6.42,5.18,11.12,5.89,0-1.68-.94-2.4-1.47-3.92-.48-1.37-.44-2.81-.83-4.12a14.76,14.76,0,0,0-1.47-3.85C276.24,121.77,274.61,121.8,272.11,120.51Z" fill="#fff"/><path d="M268.59,132.55c.71,1.16,3,1,3.84,2.1.62.78.63,3,.73,4a15.49,15.49,0,0,1-.49,5.81c-.51,1.63-1.54,2.35-2.32,3.76.22-2.61,2.2-6.78,0-8.57-.73-.58-1.61-.73-2.11-1.36a10.46,10.46,0,0,1-1.08-2.67c-.47-1.35-1.55-3.33-1.6-4.64C266.75,131.53,267.25,133,268.59,132.55Z" fill="#fff"/><path d="M277.29,136.64c-.11,2.05.63,4,.58,6.05-.07,2.77-1.28,3.69-2.59,5.88,2.14.79,4,2.48,6.31,3.14A27,27,0,0,0,288,153c.08-1.3-.88-3.45-1.16-4.86-.43-2.18-2-3.61-2.88-5.58-.64-1.49-.3-2.67-1.58-3.83S278.89,137.15,277.29,136.64Z" fill="#fff"/><path d="M282.29,154.51c-1.13,1.41-.66,3.83-1,5.6-.41,2.12-1.29,4,.61,5.34,3.61,2.63,8.94,2.6,13.2,2.49.16-1.49-1.15-3.81-1.51-5.38a16.86,16.86,0,0,0-1.68-3.81C289.91,155,286.14,155.14,282.29,154.51Z" fill="#fff"/><path d="M290.35,171.79c-.26,2.43,4.86,4.14,6.74,4.45.66-1.49-.42-4.07-.74-5.58C294.85,170.59,290.37,169.28,290.35,171.79Z" fill="#fff"/><path d="M273.13,26.2c.72,1.22.08,5.78,0,7.7-.13,2.92-1.83,5.65-1.73,8.51-.25-3.6,3-11.69,4.91-14.28,2.07,6.5-3,12.56-2,18.6a9.79,9.79,0,0,1,1-4.53,33.41,33.41,0,0,0,1.7-5.12A24.86,24.86,0,0,1,281.72,28a48,48,0,0,1-3.35,21.36c.24-3.94,2.68-7.8,4-11.36s1.81-7.71,4-11c.3,5.21,1.07,12.39-.27,17.42-.82,3.07-3,6.06-4.26,8.9-1.07,2.52-2,6-4.79,7.21,2.14-2.48,3.44-5.48,5.38-8.14a35.8,35.8,0,0,0,4.28-8.6,97.49,97.49,0,0,0,2.59-9.47c.72-2.67.28-7.25,2.22-9.34,3.19,5.54,0,15.74-1.66,21.43-2,6.72-4,12.67-8.76,17.64,3.56-5.08,8.17-10.8,9.7-16.76,1.42-5.5,3.6-11.72,4.08-17.31,3,2.25-.33,14.14-1.05,17.37-1.08,4.81-3.12,12-6.42,15.8,2.79-2.53,4.92-8.41,5.9-11.76,1.06-3.61,3.13-6.85,4-10.42a17.1,17.1,0,0,0-1.12-10.74,33.78,33.78,0,0,1-2.93-10.25c-1.57-.11-2.3,1.91-3.8,2.55s-3.85.42-5.37.76C280.86,24,277.1,25.7,273.13,26.2Z" fill="#343736"/><path d="M233.37,38.3c7-.07,10.28,3.13,15.58,7.23,3.7,2.86,8.47,8,9.18,13-1.61-.35-2.7-3.26-3.56-4.69a13.62,13.62,0,0,0-5.2-5.34c-2.29-1.44-3.84-3.46-6-5-2.48-1.83-5.55-2.06-8-3.39,9.23.21,15.46,16.15,18.37,23.15.19-2.62-2.31-4.41-3.64-6.31-1.87-2.68-3-5.79-5.2-8.26C241.81,45.17,238.41,40.53,233.37,38.3Z" fill="#343736"/><path d="M329.6,69.13c.19-2.42-8.72-7.19-10.94-8.06-5.45-2.13-10.79-.61-16.23.57,4.54-.16,10.09-2.08,14.4-.3s8.29,5.7,11.24,8.91c-4.2-2.2-7.21-4.61-12-4.87-5.36-.28-11-.36-15.94,1.47,5.62.09,10.79-.65,16.23.88,2.85.8,9.17,3.11,9.41,6.49a36.35,36.35,0,0,0-11.27-3.8,78.43,78.43,0,0,0-12.92-1c4.36-.12,27.09,2,20.51,12.06-1.35-.22-1.83-1.51-2.71-2.56a12.86,12.86,0,0,0-5.43-3.87c-3.23-1.32-7-1.68-10.13-3.23,4.27,2.62,9.89,3.5,13.42,7.25s2.61,10-1.73,13c-.94-1.65-.37-3.6-.85-5.36-.69-2.52-2.68-3.92-4.5-5.65-3.33-3.18-6.85-4.37-11.63-4.16,4-.26,10.5,5.44,12.43,8.51s1.93,8.11.75,11.66c-.91-1.37-.94-4.84-1.55-6.66-.81-2.41-1.29-4.68-3.52-6.32,1.71-.43,1.59,6,1.67,7.74.1,2,.57,5.57-.5,7.24-1.59-2.26-.21-6.72-2.93-8.53-1,2.17-.32,6.16-.32,8.67,3.2.72,8-1.23,10.17-3.76s3.21-6.89,4.66-9.9c1.31-2.73,2.77-6.44,4.62-8.79,1.11-1.4,2.37-1.53,3.67-2.64A6.54,6.54,0,0,0,329.6,69.13Z" fill="#343736"/><path d="M217.81,46.08c8.86,1.89,7.85,17,8.42,23.69.67,7.74.8,15.88.8,23.65.32-3.38-.64-7.36-.8-10.76-.17-3.67-1-6.23-1.78-9.65-.44-2-.4-3.16-1.27-5.14-1.14-2.58-2.62-5-3.55-7.71C218.39,56.6,218.86,51.08,217.81,46.08Z" fill="#343736"/><path d="M224.15,68.27c-.86,1.68-.16,5-.59,7.07-.5,2.47-.75,4.88-1.16,7.48a70.92,70.92,0,0,0,.6,14.39c2.69,10.92,8.14,19.17,15.77,27.51,4.84,5.28,5.77,12.12,7.87,18.84-.34-4-4.72-9.88-8-12-6.63-4.28-12.57-8.64-16.79-15.58-2.26-3.71-3.25-5.95-3.46-10.14-.16-3.27-.09-6.6-.29-9.87-.41-6.35-.87-12.48-.87-19,0-2.82-.75-6.89.58-9.52C218.9,65.39,223.26,63.13,224.15,68.27Z" fill="#343736"/><path d="M127.58,33.18c2.88,1.42,5.42,9.16,7.57,11.9,3.28,4.17,5.64,7.53,10.1,10.07,3.06,1.75,7.28,3.12,9.94,5.59,3.84,3.59,4.55,7.73,6.66,11.94,1.56,3.09,2.47,2.83,5.32,3.87,2.59,1,5.53,3.76,6.22-.66.75-4.78-7.38-4.94-9.76-8.33-1-1.5-1.47-4.9-2.35-6.68s-1.89-4.46-3.12-5.83c-3.33-3.7-7.29-4.88-10.27-9.56-3.22-5-6.26-10-8.9-15.21-1.4-2.77-2.11-6.93-5.82-4.25C131.15,27.49,131.57,30.49,127.58,33.18Z" fill="#343736"/><path d="M147,45.77c3.22-.54,8.12,4.12,10.63,5.79a26.41,26.41,0,0,1,8.14,8.68c4.55,7.5,5.39,16.06,5.4,24.82-.11-9.82,5.24-21.14-1.29-29.77-2.92-3.86-7.05-5.77-11.2-7.48-3.77-1.55-8.52-2-11.85-4.18C147,43.89,147.15,44.15,147,45.77Z" fill="#343736"/><path d="M302.27,218.62c0,38.08-59.89,69-133.78,69s-133.77-30.88-133.77-69,113.63.59,98.72-25.78C124.39,176.83,302.27,180.53,302.27,218.62Z" fill="#343736"/><path d="M13,169.32H325.6a11,11,0,0,1,11,11v49.07a11,11,0,0,1-11,11H13a11,11,0,0,1-11-11V180.34A11,11,0,0,1,13,169.32Z" fill="#343736"/><path d="M296.3,237.39s-11.71,31.81-27.63,47.87-60,23.61-84.78,18.91S145.49,288.08,138,286s-27.74,6-42.73,5.35C75,290.46,58,283.9,52.8,272.32s3.46-23.83,3.46-23.83Z" fill="#343736"/><path d="M124.21,249l4.88,12.18L134,249h2.56V264h-2v-5.81l.18-6.28L129.84,264h-1.51l-4.89-12.06.2,6.25V264h-2V249Z" fill="#fff"/><path d="M151,259.21a5.54,5.54,0,0,1-1.75,3.66,5.73,5.73,0,0,1-3.91,1.29,5.23,5.23,0,0,1-4.24-1.9,7.6,7.6,0,0,1-1.6-5.08v-1.43a8.42,8.42,0,0,1,.75-3.66,5.56,5.56,0,0,1,2.1-2.43,5.9,5.9,0,0,1,3.16-.84,5.35,5.35,0,0,1,3.81,1.33,5.55,5.55,0,0,1,1.68,3.67h-2a4.22,4.22,0,0,0-1.12-2.59,3.32,3.32,0,0,0-2.39-.8,3.53,3.53,0,0,0-3,1.39,6.44,6.44,0,0,0-1.07,4v1.45a6.57,6.57,0,0,0,1,3.87,3.27,3.27,0,0,0,2.84,1.44,3.74,3.74,0,0,0,2.51-.75,4.05,4.05,0,0,0,1.17-2.59Z" fill="#fff"/><path d="M164.62,259.21a5.48,5.48,0,0,1-1.74,3.66,5.74,5.74,0,0,1-3.92,1.29,5.26,5.26,0,0,1-4.24-1.9,7.65,7.65,0,0,1-1.59-5.08v-1.43a8.57,8.57,0,0,1,.74-3.66,5.64,5.64,0,0,1,2.11-2.43,5.9,5.9,0,0,1,3.16-.84,5.36,5.36,0,0,1,3.81,1.33,5.5,5.5,0,0,1,1.67,3.67h-2a4.34,4.34,0,0,0-1.12-2.59,3.34,3.34,0,0,0-2.39-.8,3.53,3.53,0,0,0-3,1.39,6.44,6.44,0,0,0-1.07,4v1.45a6.65,6.65,0,0,0,1,3.87,3.29,3.29,0,0,0,2.84,1.44,3.75,3.75,0,0,0,2.52-.75,4.11,4.11,0,0,0,1.17-2.59Z" fill="#fff"/><path d="M178.28,259.21a5.49,5.49,0,0,1-1.75,3.66,5.71,5.71,0,0,1-3.91,1.29,5.25,5.25,0,0,1-4.24-1.9,7.65,7.65,0,0,1-1.59-5.08v-1.43a8.42,8.42,0,0,1,.74-3.66,5.64,5.64,0,0,1,2.11-2.43,5.9,5.9,0,0,1,3.16-.84,5.38,5.38,0,0,1,3.81,1.33,5.54,5.54,0,0,1,1.67,3.67h-2a4.28,4.28,0,0,0-1.11-2.59,3.34,3.34,0,0,0-2.39-.8,3.51,3.51,0,0,0-3,1.39,6.38,6.38,0,0,0-1.07,4v1.45a6.57,6.57,0,0,0,1,3.87,3.28,3.28,0,0,0,2.84,1.44,3.77,3.77,0,0,0,2.52-.75,4.1,4.1,0,0,0,1.16-2.59Z" fill="#fff"/><path d="M185.23,254.74l3.58-5.72h2.32l-4.72,7.41,4.83,7.52H188.9l-3.67-5.82L181.54,264h-2.33l4.84-7.52L179.33,249h2.3Z" fill="#fff"/><path d="M203.79,259.21a5.54,5.54,0,0,1-1.75,3.66,5.73,5.73,0,0,1-3.91,1.29,5.23,5.23,0,0,1-4.24-1.9,7.6,7.6,0,0,1-1.6-5.08v-1.43a8.42,8.42,0,0,1,.75-3.66,5.56,5.56,0,0,1,2.1-2.43,5.9,5.9,0,0,1,3.16-.84,5.35,5.35,0,0,1,3.81,1.33,5.55,5.55,0,0,1,1.68,3.67h-2a4.22,4.22,0,0,0-1.12-2.59,3.32,3.32,0,0,0-2.39-.8,3.53,3.53,0,0,0-3,1.39,6.44,6.44,0,0,0-1.07,4v1.45a6.57,6.57,0,0,0,1,3.87,3.27,3.27,0,0,0,2.84,1.44,3.74,3.74,0,0,0,2.51-.75,4.05,4.05,0,0,0,1.17-2.59Z" fill="#fff"/><path d="M208.48,264h-2V249h2Z" fill="#fff"/><path d="M214,264h-2V249h2Z" fill="#fff"/><path d="M219.55,264h-2V249h2Z" fill="#fff"/><path d="M71.49,190.81,82,220.48l10.45-29.67h11.07v40.91H95.07V220.54l.84-19.31-11,30.49H79.08l-11-30.46.84,19.28v11.18H60.47V190.81Z" fill="#68a692"/><path d="M123.23,232.29a16.42,16.42,0,0,1-6.33-1.16,13.83,13.83,0,0,1-4.75-3.14,13.33,13.33,0,0,1-3-4.68,15.86,15.86,0,0,1-1-5.75v-1.1a19.1,19.1,0,0,1,1-6.33,14.41,14.41,0,0,1,2.84-5,12.76,12.76,0,0,1,4.46-3.25,15.79,15.79,0,0,1,11.68-.08,11.52,11.52,0,0,1,4.2,3,12.84,12.84,0,0,1,2.56,4.71,20.64,20.64,0,0,1,.86,6.13v3.45H116.37a8.43,8.43,0,0,0,.81,2.7,6.67,6.67,0,0,0,3.75,3.4,7.94,7.94,0,0,0,2.84.48,10.12,10.12,0,0,0,4.1-.83,8.3,8.3,0,0,0,3.23-2.57l4,4.47a12.42,12.42,0,0,1-4.41,3.78,15.43,15.43,0,0,1-3.36,1.23A17,17,0,0,1,123.23,232.29Zm-.93-25a5.38,5.38,0,0,0-2.31.47,5.09,5.09,0,0,0-1.72,1.29,6.43,6.43,0,0,0-1.16,2,11.28,11.28,0,0,0-.65,2.56h11.3V213a8.15,8.15,0,0,0-.36-2.25,4.91,4.91,0,0,0-1-1.8,4.55,4.55,0,0,0-1.69-1.18A6.37,6.37,0,0,0,122.3,207.33Z" fill="#68a692"/><path d="M147.86,231.72h-8.15V188.56h8.15Z" fill="#68a692"/><path d="M171.79,228.75a9.84,9.84,0,0,1-3.54,2.61,13.7,13.7,0,0,1-9.1.29,7.91,7.91,0,0,1-3.16-2,9.29,9.29,0,0,1-2.05-3.51,16.09,16.09,0,0,1-.73-5.16V201.32H160v19.73a8.24,8.24,0,0,0,.39,2.74,4.66,4.66,0,0,0,1.06,1.74,3.68,3.68,0,0,0,1.53.93,6.48,6.48,0,0,0,1.83.26,8.47,8.47,0,0,0,4.27-.95,6.11,6.11,0,0,0,2.44-2.62V201.32h6.83v30.4H172Z" fill="#fff"/><path d="M200.94,223.46a4,4,0,0,0-.23-1.36,2.84,2.84,0,0,0-1-1.18,7.21,7.21,0,0,0-2-1,25.32,25.32,0,0,0-3.33-.9,28.28,28.28,0,0,1-4.45-1.26,13.78,13.78,0,0,1-3.44-1.84,8,8,0,0,1-2.24-2.54,7,7,0,0,1-.8-3.38,7.84,7.84,0,0,1,.82-3.52,8.66,8.66,0,0,1,2.34-2.94,11.86,11.86,0,0,1,3.71-2,14.93,14.93,0,0,1,4.88-.74,16.19,16.19,0,0,1,5.1.74,11.66,11.66,0,0,1,3.83,2.05,8.76,8.76,0,0,1,3.24,6.9h-6.83a4.56,4.56,0,0,0-.34-1.7,4.17,4.17,0,0,0-1-1.47,4.92,4.92,0,0,0-1.67-1,6.6,6.6,0,0,0-2.32-.38,7.22,7.22,0,0,0-2.25.32,5,5,0,0,0-1.59.85,3.31,3.31,0,0,0-.94,1.21,3.42,3.42,0,0,0-.31,1.44,3,3,0,0,0,.28,1.35,2.72,2.72,0,0,0,1,1.07,8.58,8.58,0,0,0,1.93.89,30.26,30.26,0,0,0,3,.8,34.27,34.27,0,0,1,4.73,1.32A13.31,13.31,0,0,1,204.7,217a7.42,7.42,0,0,1,2.2,2.59,7.64,7.64,0,0,1,.76,3.54,8,8,0,0,1-.87,3.71,8.48,8.48,0,0,1-2.49,2.9,11.87,11.87,0,0,1-3.89,1.9,17.75,17.75,0,0,1-5.06.68,15.9,15.9,0,0,1-5.52-.89,12.51,12.51,0,0,1-4-2.32,9.5,9.5,0,0,1-2.46-3.24,8.85,8.85,0,0,1-.83-3.7h6.63a5.16,5.16,0,0,0,.65,2.36,4.73,4.73,0,0,0,1.43,1.55,6.15,6.15,0,0,0,2,.86,9.89,9.89,0,0,0,2.25.26,7,7,0,0,0,4.1-1A3.17,3.17,0,0,0,200.94,223.46Z" fill="#fff"/><path d="M212.05,193.42a3.63,3.63,0,0,1,1-2.61,4.45,4.45,0,0,1,5.72,0,3.6,3.6,0,0,1,1,2.61,3.52,3.52,0,0,1-1,2.57,4.49,4.49,0,0,1-5.72,0A3.55,3.55,0,0,1,212.05,193.42Zm7.25,38.3h-6.82v-30.4h6.82Z" fill="#fff"/><path d="M231.73,201.32l.2,3.51a11.29,11.29,0,0,1,3.85-3,11.52,11.52,0,0,1,5-1.06,12.46,12.46,0,0,1,4,.6,7.34,7.34,0,0,1,3.05,1.95,9.1,9.1,0,0,1,1.95,3.52,17.4,17.4,0,0,1,.69,5.25v19.64h-6.83V212a8.84,8.84,0,0,0-.35-2.66,4.41,4.41,0,0,0-1-1.76,3.86,3.86,0,0,0-1.67-1,8.33,8.33,0,0,0-2.29-.29,6.65,6.65,0,0,0-3.67,1,7.27,7.27,0,0,0-2.48,2.73v21.63H225.3v-30.4Z" fill="#fff"/><path d="M269.35,232.29a15.64,15.64,0,0,1-6.07-1.13,13.32,13.32,0,0,1-4.58-3.09,13.5,13.5,0,0,1-2.9-4.66,16.55,16.55,0,0,1-1-5.82v-1.13a18.82,18.82,0,0,1,1.07-6.5,15,15,0,0,1,2.92-5,13.07,13.07,0,0,1,4.37-3.14,13.26,13.26,0,0,1,5.41-1.11,13.83,13.83,0,0,1,5.76,1.11,10.87,10.87,0,0,1,4.05,3.1,13.37,13.37,0,0,1,2.39,4.75,22.13,22.13,0,0,1,.78,6v2.93H261.68a11,11,0,0,0,.74,3.26,7.88,7.88,0,0,0,1.65,2.57,7.69,7.69,0,0,0,2.45,1.7,8,8,0,0,0,3.22.61,9,9,0,0,0,4.4-1,10.24,10.24,0,0,0,3.25-2.78l3.68,3.51a12.58,12.58,0,0,1-1.82,2.13,12.33,12.33,0,0,1-2.52,1.82,14,14,0,0,1-3.28,1.29A15.66,15.66,0,0,1,269.35,232.29Zm-.82-26a5.73,5.73,0,0,0-4.53,2,10.15,10.15,0,0,0-2.21,5.48h13v-.5a12.29,12.29,0,0,0-.44-2.6,6.38,6.38,0,0,0-1.08-2.22,5.24,5.24,0,0,0-1.89-1.55A6.48,6.48,0,0,0,268.53,206.24Z" fill="#fff"/><path d="M165.64,2a65.23,65.23,0,0,1,8.11.58,45.36,45.36,0,0,1,14.77,4.78C199.47,12.27,206.08,18.3,211.78,29a24.74,24.74,0,0,1,2.68,4.29,111.67,111.67,0,0,1,4.24,10.64c.22.65.42,1.31.62,2a8.14,8.14,0,0,0,.87-.49c1.78-1.14,3.7-3.08,5.49-4.32a21.42,21.42,0,0,1,11.67-4,15.54,15.54,0,0,1,2,.14,27,27,0,0,1,12.44,5.43c4.59,3.9,4.24,5.24,6.51,9.13.06-2.52-1.1-5-1.44-7.49s-.87-5.29.14-9c1.48-5.37,5.12-8.56,11.75-10.14,5.73-1.37,10.12-.41,15.89-2.38,6.13-2.09,6.34-4.49,10.55-8.12a27.66,27.66,0,0,1,.58,6.13c0,2.34.92,4.54,1.59,6.89,1.17,4.13,1.72,6.17,2.68,10.28,2.14,9.12,0,17.77-5.31,25.55,2.56-2.88,7-5.9,10.24-7.74a13.19,13.19,0,0,1,6.68-1.8,17,17,0,0,1,9.41,3.11c3.95,2.66,5.67,5.05,8.37,8.79,2.88,4,5.75,5.15,10.19,7.25-.54,0-1.09.06-1.63.06-1.49,0-3-.11-4.45-.11-3,0-5.93.48-8.23,3.45-2.79,3.59-3.74,8.29-5.79,12.37a24.88,24.88,0,0,1-4.75,6.36l-.11.16a9.34,9.34,0,0,1-2.1,1.79c-3.61,2.87-8,4.84-12.26,4.84a13,13,0,0,1-9.15-3.73c-1.73-1.63-3.33-4.65-4.53-6.69-1.36-2.31-2.85-3.78-4.25-6-6.13.66-10.13,8.82-11.39,14.32-1.47,6.42,1.54,13.39,3.06,19.79,1.86,7.83,6.31,15.17,9.41,22.6,1.84,4.4,3.46,8.55,5.6,12.79A151.79,151.79,0,0,1,295,169.32h30.6a11.07,11.07,0,0,1,11,11v49.07a11.05,11.05,0,0,1-11,11H295.43c-.26.41-.54.82-.82,1.23-3.78,9.21-13.59,31.13-25.94,43.59-12.76,12.89-43.68,20.29-68.18,20.29a90.4,90.4,0,0,1-16.6-1.38c-24.75-4.7-38.4-16.09-45.87-18.13a11.48,11.48,0,0,0-3-.33c-8.57,0-24.85,5.72-37.87,5.72-.63,0-1.26,0-1.87,0C75,290.46,58,283.9,52.8,272.32c-3.08-6.82-1.33-13.87.63-18.52a63.73,63.73,0,0,1-11.87-13.36H13a11.05,11.05,0,0,1-11-11V180.34a11.05,11.05,0,0,1,11-11H52.67c.21-.58.44-1.15.68-1.71l.71-1.59c-3.68-.89-7-1.9-3.7-2a16.39,16.39,0,0,1-7.25-6.93,5.72,5.72,0,0,0-5.32-3.25,8.1,8.1,0,0,0-2.81.51s5.07-11.71,3.92-14.93-8.63-6.67-8.63-6.67c.44-1.81,1.84-3.87,2.79-5.86.31-.86.61-1.79.88-2.79.22-2.4-.74-4.92-.79-7.33,0-2.8-.34-6.59.48-9.34a.25.25,0,0,0,0-.07,31.06,31.06,0,0,1,1.15-4.5C38.51,91.8,36.3,94,39.88,87.79c2.19-3.83-.76-7.7-3.37-10.13-2.06-1.52-3.17-2.49-3.17-2.49a3.71,3.71,0,0,0,1.36.35c.94,0,1.68-.75-.37-4.47-1-1.8-2.26-4-3.55-6.19h0c-2.08-3.53-4.27-6.42-6.56-11h0c6.17,1.71,12.4,4.6,19.43,4.6A26.57,26.57,0,0,0,58.43,53.8c-.55.61-1.15,1.25-1.78,1.91a18.22,18.22,0,0,0,1.78-1.91A127.71,127.71,0,0,0,73.27,73.61l.08.07a124.21,124.21,0,0,0,21.44,15.7A9.66,9.66,0,0,1,98,91.21l1.47.81a68.63,68.63,0,0,0,.81-15.5c-1.06-13.77,2.4-30.84,9.16-44.07,8.12-15.89,23.13-23.06,32-25.54a26,26,0,0,1,6.86-1.1c3.35,0,4.45,1.1,4.45,1.1l1.63-.76-1.84.26c1.41-1.09,3.37-1.52,4.93-2.41a11.28,11.28,0,0,1,3.72-1.69A29.05,29.05,0,0,1,165.64,2m89.81,129.68c-1.11-4.1-2.07-7.91-2.54-10.77a61.42,61.42,0,0,1,7.19-40.43c-4.21.15-7.22,2.48-11.24,2.48h-.47a31.25,31.25,0,0,1-14-4.51c-8.07-5.11-2.42-15-8-22-.57-.71-1.08-1.38-1.63-2,1.34,5.23,1.17,11.63,1.49,15.37C226.77,76,227,82.57,227,89a42.85,42.85,0,0,0,2.1,8.67c2,5.41,7.38,8.91,8.57,15a17.16,17.16,0,0,1-.87,9.15c2,.65,4.09,1.2,6.13,1.76l.7.17c.8.23,1.58.47,2.34.75a19.47,19.47,0,0,1,3.48,1.47,11.87,11.87,0,0,1,1.53,1,16.43,16.43,0,0,1,4.46,4.69m-20.36-11.2a12.69,12.69,0,0,0-.75-8.77c-2.17-4.31-6.92-6.55-8.75-11.09-1.67-4.14-.5-9.54-.5-14.06a83.08,83.08,0,0,0-1.34-13.46c0-.06,0-.12,0-.18a12.28,12.28,0,0,1-.15,2.42c-.5,2.47-.75,4.88-1.16,7.48a70.92,70.92,0,0,0,.6,14.39c2.24,9.07,6.38,16.3,12.09,23.27m-8.92-38.72c0-.17,0-.35,0-.52,0,.1,0,.2,0,.31l0,.21m19.51,58.48a21.69,21.69,0,0,0-1.45-2.65c.69,1.41,1.31,2.88,1.9,4.27l-.45-1.62a11.94,11.94,0,0,1,.84,2.51,21,21,0,0,0,2.41,4.47c2.15,2.69,4.17,5.35,6.19,8.14a19.63,19.63,0,0,1-.56-5.49c.29-2.5,2-5.78.25-8.22s-6.07-4.8-8.53-6.18a17.09,17.09,0,0,0-1.66-.69l-.55-.14c.59,1.83,1.09,3.71,1.61,5.6m13.07,25.43c0-.07,0-.15-.07-.23a32.8,32.8,0,0,0-1.41-3c-.3,1-.72,1.82-1.07,2.83-.12-2-.55-4-.78-6a44.48,44.48,0,0,0-3.73-4.95c-2-2.3-4.06-4.38-6-6.56a54.56,54.56,0,0,0,1.71,5.44c1.46,3.6,2.68,7.21,4,10.8a24.16,24.16,0,0,0,3.25,5.31h4.69c-.15-1.22-.35-2.44-.58-3.65a12.48,12.48,0,0,1,.74,3.65h2.65a58.1,58.1,0,0,0-.93-15.49c-.35-2-.94-4.47-1.65-7.2A64.31,64.31,0,0,1,258,157.46c-.08,1-.18,2-.3,2.93.41,1.46.65,3,1,4.77l.09.51M91.86,169.32H92c.59-.65,1.2-1.28,1.8-1.9-.66.63-1.32,1.26-2,1.9m-13.21,0h4.74l0-1a30,30,0,0,0-4.72,1M165.64,0h0a29.94,29.94,0,0,0-4.83.34A10.89,10.89,0,0,0,157,1.93l-.57.33a15.79,15.79,0,0,1-1.83.83A17.55,17.55,0,0,0,152,4.33a12.16,12.16,0,0,0-3.74-.52A27.92,27.92,0,0,0,140.85,5c-5.38,1.5-23.66,7.87-33.21,26.55C100.75,45,97.17,62.31,98.27,76.67a63.5,63.5,0,0,1-.37,12,11,11,0,0,0-2.26-1.11A123.25,123.25,0,0,1,74.73,72.24l0,0A127.4,127.4,0,0,1,60.17,52.81,2.11,2.11,0,0,0,60,52.5a2,2,0,0,0-1.53-.7,1.94,1.94,0,0,0-1.08.32,24.85,24.85,0,0,1-13.7,4.36c-4.82,0-9.38-1.49-13.79-2.94-1.67-.55-3.4-1.12-5.1-1.59a2,2,0,0,0-1.75.34,2,2,0,0,0-.79,1.59,2.07,2.07,0,0,0,.22.91,78.44,78.44,0,0,0,4.45,7.61c.75,1.17,1.46,2.28,2.17,3.47,1.44,2.47,2.63,4.54,3.52,6.15.25.46.45.85.59,1.17A2,2,0,0,0,32,76.68s1.16,1,3.2,2.52c2.17,2,4.4,5,2.91,7.6-2.07,3.61-2.35,4.61-2.85,7a71.1,71.1,0,0,1-2.38,8.46,31.41,31.41,0,0,0-1.2,4.67c-.78,2.63-.68,5.92-.6,8.57,0,.47,0,.92,0,1.35a22.15,22.15,0,0,0,.45,3.51,15.39,15.39,0,0,1,.37,3.43c-.22.78-.48,1.57-.76,2.36-.28.59-.61,1.19-1,1.83a18.82,18.82,0,0,0-1.92,4.34,2,2,0,0,0,1.1,2.28c3.23,1.5,7,4,7.58,5.53.48,1.32-1.33,7.61-3.86,13.47A2,2,0,0,0,35,156.35a2.07,2.07,0,0,0,.77-.15h0a6.15,6.15,0,0,1,2-.36A3.74,3.74,0,0,1,41.35,158,18.37,18.37,0,0,0,47,164.36c0,1.52,1.29,2.2,4.06,3H13a13,13,0,0,0-13,13v49.08a13,13,0,0,0,13,13H40.48a65.91,65.91,0,0,0,10.57,11.93c-1.87,5-3.15,12-.08,18.78,5.26,11.64,21.79,19.21,44.23,20.24.63,0,1.29,0,2,0,7.4,0,15.75-1.78,23.12-3.35,5.72-1.22,11.12-2.37,14.75-2.37a9.88,9.88,0,0,1,2.47.26c2.19.6,5.17,2.19,8.93,4.21,8,4.27,20,10.71,37.08,13.95a92,92,0,0,0,17,1.42c24.31,0,56-7.17,69.6-20.88,12.55-12.67,22.51-34.87,26.29-44.05l.12-.18h29.12a13,13,0,0,0,13-13V180.35a13.05,13.05,0,0,0-13-13H296.4c-1.6-4.33-3.95-9.88-5.53-13-1.71-3.39-3.08-6.71-4.53-10.23l-1-2.43c-1-2.51-2.26-5-3.43-7.47-2.3-4.82-4.69-9.8-5.89-14.82-.36-1.55-.82-3.14-1.26-4.68-1.38-4.82-2.8-9.79-1.79-14.2s4.1-11.11,8.54-12.54c.42.57.83,1.1,1.23,1.62a27,27,0,0,1,2.19,3.12c.19.31.38.64.58,1a28.11,28.11,0,0,0,4.3,6.13,14.93,14.93,0,0,0,10.53,4.28c4.4,0,9.16-1.85,13.43-5.21a11.11,11.11,0,0,0,2.46-2.14,1.71,1.71,0,0,0,.11-.14,26.26,26.26,0,0,0,5-6.76,49.47,49.47,0,0,0,2.07-4.92,27.42,27.42,0,0,1,3.52-7.13c1.73-2.23,3.82-2.67,6.65-2.67.69,0,1.39,0,2.13,0s1.54.06,2.32.06,1.24,0,1.78-.06a2,2,0,0,0,.7-3.81l-.88-.42c-3.84-1.8-6.15-2.9-8.54-6.19-2.79-3.87-4.63-6.42-8.87-9.28A18.94,18.94,0,0,0,311.69,52,15.2,15.2,0,0,0,304,54.07c-.6.35-1.7,1-3,1.87a31.77,31.77,0,0,0,1-18.4c-1-4.1-1.52-6.19-2.71-10.37-.17-.59-.35-1.17-.54-1.75a15,15,0,0,1-1-4.56,30.12,30.12,0,0,0-.65-6.68,2,2,0,0,0-1.35-1.39,2,2,0,0,0-.58-.09,2,2,0,0,0-1.31.48,34.91,34.91,0,0,0-3.29,3.29A13,13,0,0,1,284,20.92a30.61,30.61,0,0,1-8.35,1.38,41.33,41.33,0,0,0-7.37,1C261,25,256.8,28.68,255.11,34.81a18.93,18.93,0,0,0-.47,7.71c-.44-.43-.94-.88-1.51-1.36a29,29,0,0,0-13.46-5.89,17.6,17.6,0,0,0-2.32-.16,23.35,23.35,0,0,0-12.81,4.33c-.91.63-1.83,1.4-2.71,2.15-.47.4-1,.8-1.41,1.17-1.21-3.5-2.64-7.06-4.14-10.33a26.36,26.36,0,0,0-2.81-4.52C207.61,17,200.85,10.7,189.39,5.56A47.31,47.31,0,0,0,174,.59,68.28,68.28,0,0,0,165.64,0ZM229,88.8c0-5.48-.19-10.17-.44-14.38a11.27,11.27,0,0,0,4.71,5.71,33.14,33.14,0,0,0,15,4.82h.56a18.89,18.89,0,0,0,6.27-1.32c.45-.15.88-.3,1.32-.43a63.56,63.56,0,0,0-5.52,38c.18,1.08.43,2.32.77,3.78a11.59,11.59,0,0,0-1.25-.82,22,22,0,0,0-3.84-1.63c-.77-.28-1.6-.54-2.44-.77l-.55-.14-.18,0-1.45-.4-2.66-.74a19.14,19.14,0,0,0,.31-8.23c-.76-3.88-2.91-6.71-5-9.45A24,24,0,0,1,231,96.93a39.34,39.34,0,0,1-2-8.13Zm4.33,26.09a57,57,0,0,1-3.79-6.11,15.4,15.4,0,0,1,3,3.83,8.81,8.81,0,0,1,.79,2.28Zm14.23,24.68-.23-.82-.12-.44c2.15,1.25,4.84,3,6,4.53.68.93.4,2.32-.11,4.34-.14.53-.28,1.07-.38,1.61L250.49,146a19.52,19.52,0,0,1-2.06-3.84,14,14,0,0,0-.86-2.56Zm6.62,25.57a11.28,11.28,0,0,1-.93-1.83c-.44-1.17-.86-2.35-1.29-3.53s-.85-2.36-1.29-3.56A44,44,0,0,1,253.5,160c.08.66.18,1.31.28,1.94.17,1.11.33,2.16.41,3.21Zm5.51-4.89c.07-.57.13-1.16.19-1.79.18,1.52.31,3,.37,4.38-.16-.89-.34-1.75-.56-2.59Zm-3.5,7a2.08,2.08,0,0,0,.78-.15l0,.22h-1.34l-.13-.18a1.64,1.64,0,0,0,.38.1Z" fill="#fff"/><path d="M226.29,126.72c8.2-2.66,19.65.36,26.85,4.46,9.65,5.49,12.78,13.57,15,23.79,1.33,6.24,4.57,18.09-3.3,20.86a19.25,19.25,0,0,1-23.2-7.76A104.45,104.45,0,0,1,226.29,126.72Z" fill="#343736"/><path d="M148.51,46.46c2.77-1.29,7.75,2.49,9.82,4,2.92,2.1,6.21,4.14,8.81,6.61s5.63,8.64,4.09,12.48c-.56,1.4-.14.93-1.61,1.44a8.12,8.12,0,0,1-4.83-.55,9.75,9.75,0,0,1-5.87-6.89c-1.1-3.94-3.78-6.87-5.59-10.36C152.23,51,151.37,47.83,148.51,46.46Z" fill="#343736"/></g></g></svg>